<svg xmlns="http://www.w3.org/2000/svg" width="22" height="21" fill="none" viewBox="0 0 22 21">
  <path fill="#fff" d="M13.146 8.851h1.041a.51.51 0 0 0 .357-.144.471.471 0 0 0 .143-.346V6.758a.487.487 0 0 0-.458-.48s-.74-.06-1.646-.06c-2.23 0-3.458 1.271-3.458 3.575v1.773H7.073a.5.5 0 0 0-.357.137.462.462 0 0 0-.143.344v1.462a.461.461 0 0 0 .143.343.5.5 0 0 0 .357.138h2.02v5.669h3.042v-5.67h1.833a.504.504 0 0 0 .5-.42l.188-1.462a.46.46 0 0 0-.125-.381.51.51 0 0 0-.375-.16h-2.02V9.853c-.001-.542.446-.985 1.01-1.002Z"/>
  <path fill="#fff" fill-rule="evenodd" d="M.583 10.855C.583 5.373 5.205.929 10.906.929c2.738 0 5.363 1.045 7.3 2.907 1.935 1.861 3.023 4.386 3.023 7.019 0 5.482-4.622 9.925-10.323 9.925-5.701 0-10.323-4.444-10.323-9.925Zm19.083 0c0-4.653-3.922-8.424-8.76-8.424-4.834.011-8.749 3.776-8.76 8.424 0 4.652 3.922 8.423 8.76 8.423 4.838 0 8.76-3.771 8.76-8.423Z" clip-rule="evenodd"/>
</svg>
