<svg xmlns="http://www.w3.org/2000/svg" width="20" height="21" fill="none" viewBox="0 0 20 21">
  <path fill="#fff" fill-rule="evenodd" d="M6 .944h7.7a6 6 0 0 1 6 6v7.7a6 6 0 0 1-6 6H6a6 6 0 0 1-6-6v-7.7a6 6 0 0 1 6-6Zm12.2 6a4.51 4.51 0 0 0-4.5-4.5H6a4.51 4.51 0 0 0-4.5 4.5v7.7a4.51 4.51 0 0 0 4.5 4.5h7.7a4.51 4.51 0 0 0 4.5-4.5v-7.7Z" clip-rule="evenodd"/>
  <path fill="#fff" fill-rule="evenodd" d="M5.55 10.794a4.31 4.31 0 0 1 4.3-4.3 4.31 4.31 0 0 1 4.3 4.3 4.3 4.3 0 1 1-8.6 0Zm7.1 0a2.8 2.8 0 0 0-2.8-2.8 2.81 2.81 0 0 0-2.8 2.8 2.8 2.8 0 1 0 5.6 0Z" clip-rule="evenodd"/>
  <path fill="#fff" d="M13.51 5.45a1.085 1.085 0 1 1 2.17 0 1.085 1.085 0 0 1-2.17 0Z"/>
</svg>
