<svg xmlns="http://www.w3.org/2000/svg" width="17" height="18" fill="none" viewBox="0 0 17 18">
  <path fill="#fff" fill-rule="evenodd" d="M3.558 5.944c-1.04.01-2.08.007-3.12.001-.293-.001-.439.1-.438.434.007 3.73.004 7.458.005 11.186 0 .142-.022.298.153.363.007.023 3.672.021 3.682-.001.193-.075.154-.25.154-.402.002-3.702-.001-7.404.006-11.107 0-.336-.114-.476-.442-.474ZM2 .944a2 2 0 1 0 0 4 2 2 0 0 0 0-4ZM16.948 17.37c.003-1.912.012-3.823-.003-5.734-.007-.837-.037-1.676-.213-2.5-.288-1.351-.938-2.406-2.227-2.897-.86-.328-1.759-.35-2.657-.222a4.022 4.022 0 0 0-2.083.928v-.452c.002-.29-.132-.42-.41-.418-.984.004-1.97.003-2.954 0-.271 0-.401.112-.401.416.005 3.668.003 7.335.003 11.003 0 .14-.018.29.145.36.017.022 3.573.03 3.573.007.233-.105.161-.326.162-.506.003-1.809-.008-3.617.002-5.426.003-.566.024-1.137.268-1.664.29-.624.888-.894 1.732-.784.58.076.951.47 1.067 1.154.043.253.075.512.076.768.011 1.99.013 3.98.021 5.97.001.183-.054.4.183.492-.009.026 3.572.01 3.573-.015.192-.112.143-.308.143-.48Z" clip-rule="evenodd"/>
</svg>
