<svg width="20" height="21" viewBox="0 0 20 21" fill="none" xmlns="http://www.w3.org/2000/svg">
<path fill-rule="evenodd" clip-rule="evenodd" d="M4.44226 0.944336H15.5623C18.0954 1.03128 20.0809 3.15094 20.0023 5.68434V12.2043C20.0399 13.4279 19.5883 14.6159 18.7475 15.5056C17.9067 16.3952 16.746 16.913 15.5223 16.9443H6.00226C5.34345 16.958 4.71868 17.2396 4.27226 17.7243L1.90226 20.2543C1.70147 20.4733 1.41933 20.5999 1.12226 20.6043C0.815436 20.5965 0.524471 20.4664 0.314118 20.2429C0.103766 20.0194 -0.00851789 19.7211 0.00225718 19.4143V5.68434C-0.076375 3.15094 1.90913 1.03128 4.44226 0.944336ZM15.5623 15.4443C17.2672 15.3581 18.5815 13.9096 18.5023 12.2043V5.68434C18.5815 3.97906 17.2672 2.5306 15.5623 2.44434H4.44225C2.73731 2.5306 1.42298 3.97906 1.50225 5.68434V18.4843L3.13225 16.7043C3.87768 15.9114 4.91401 15.4564 6.00225 15.4443H15.5623Z" fill="#FFF5ED"/>
<path d="M6.25225 7.69434H11.2523C11.6665 7.69434 12.0023 7.35855 12.0023 6.94434C12.0023 6.53012 11.6665 6.19434 11.2523 6.19434H6.25225C5.83804 6.19434 5.50225 6.53012 5.50225 6.94434C5.50225 7.35855 5.83804 7.69434 6.25225 7.69434Z" fill="#FFF5ED"/>
<path d="M13.7523 10.1943H6.25225C5.83804 10.1943 5.50225 10.5301 5.50225 10.9443C5.50225 11.3585 5.83804 11.6943 6.25225 11.6943H13.7523C14.1665 11.6943 14.5023 11.3585 14.5023 10.9443C14.5023 10.5301 14.1665 10.1943 13.7523 10.1943Z" fill="#FFF5ED"/>
</svg>
